# File created by Blade
# Date/Time:  Thu Jan 15 19:03:44 2015
#---------------------------------------------------------
:version 1.10
:name HOM
:units
  mass 1.0
  length 1.000000
  angle deg
:documentation
     Acclaim Skeleton File
:root
   axis xyz
   order TX TY TZ RX RY RZ
   position 0.000000 0.000000 0.000000
   orientation 0 0 0
:bonedata
   begin
      id 1
      name Spine_dum
      direction 0.000000 1.000000 0.000000
      length 4.354460
      axis 0.0 0.0 0.0 xyz
   end
   begin
      id 2
      name LeftUpLeg_dum
      direction 1.000000 0.000000 0.000000
      length 4.291077
      axis 0.0 0.0 0.0 xyz
   end
   begin
      id 3
      name RightUpLeg_dum
      direction -1.000000 0.000000 0.000000
      length 4.291077
      axis 0.0 0.0 0.0 xyz
   end
   begin
      id 4
      name Spine
      direction 0.000000 1.000000 0.000000
      length 0.000000
      axis 0.0 0.0 0.0 xyz
      dof rx ry rz
   end
   begin
      id 5
      name Spine_dum1
      direction 0.000000 1.000000 0.000000
      length 16.581769
      axis 0.0 0.0 0.0 xyz
   end
   begin
      id 6
      name Spine_dum2
      direction 0.000000 1.000000 0.000000
      length 12.903700
      axis 0.0 0.0 0.0 xyz
   end
   begin
      id 7
      name Spine_dum3
      direction 0.000000 1.000000 0.000000
      length 12.903700
      axis 0.0 0.0 0.0 xyz
   end
   begin
      id 8
      name Head
      direction 0.000000 1.000000 0.000000
      length 4.527550
      axis 0.0 0.0 0.0 xyz
      dof rx ry rz
   end
   begin
      id 9
      name LeftShoulder
      direction 1.000000 0.000000 0.000000
      length 6.942033
      axis 0.0 0.0 -90.0 xyz
      dof rx ry rz
   end
   begin
      id 10
      name LeftArm
      direction 1.000000 0.000000 0.000000
      length 11.010391
      axis 0.0 0.0 -90.0 xyz
      dof rx ry rz
   end
   begin
      id 11
      name LeftForeArm
      direction 1.000000 0.000000 0.000000
      length 8.054994
      axis 0.0 0.0 -90.0 xyz
      dof rz ry rx
   end
   begin
      id 12
      name LeftHand
      direction 0.000000 0.000000 0.000000
      length 0.000000
      axis 0.0 0.0 -90.0 xyz
      dof rx ry rz
   end
   begin
      id 13
      name LeftHand_dum1
      direction 0.000000 0.000000 0.000000
      length 0.000000
      axis 0.0 0.0 -90.0 xyz
   end
   begin
      id 14
      name LeftHand_dum2
      direction 1.000000 0.000000 0.000000
      length 3.937000
      axis 0.0 0.0 -90.0 xyz
   end
   begin
      id 15
      name LeftHandThumb1
      direction 0.000000 0.000000 1.000000
      length 3.937000
      axis 0.0 0.0 -90.0 xyz
      dof rx ry rz
   end
   begin
      id 16
      name RightShoulder
      direction -1.000000 0.000000 0.000000
      length 6.942033
      axis 0.0 0.0 90.0 xyz
      dof rx ry rz
   end
   begin
      id 17
      name RightArm
      direction -1.000000 0.000000 0.000000
      length 11.010391
      axis 0.0 0.0 90.0 xyz
      dof rx ry rz
   end
   begin
      id 18
      name RightForeArm
      direction -1.000000 0.000000 0.000000
      length 8.054994
      axis 0.0 0.0 90.0 xyz
      dof rz ry rx
   end
   begin
      id 19
      name RightHand
      direction 0.000000 0.000000 0.000000
      length 0.000000
      axis 0.0 0.0 90.0 xyz
      dof rx ry rz
   end
   begin
      id 20
      name RightHand_dum1
      direction 0.000000 0.000000 0.000000
      length 0.000000
      axis 0.0 0.0 90.0 xyz
   end
   begin
      id 21
      name RightHand_dum2
      direction -1.000000 0.000000 0.000000
      length 3.937000
      axis 0.0 0.0 90.0 xyz
   end
   begin
      id 22
      name RightHandThumb1
      direction 0.000000 0.000000 1.000000
      length 3.937000
      axis 0.0 0.0 90.0 xyz
      dof rx ry rz
   end
   begin
      id 23
      name LeftUpLeg
      direction 0.000000 -1.000000 0.000000
      length 17.039958
      axis 0.0 0.0 0.0 xyz
      dof rx ry rz
   end
   begin
      id 24
      name LeftLeg
      direction 0.000000 -1.000000 0.000000
      length 16.939743
      axis 0.0 0.0 0.0 xyz
      dof rx ry rz
   end
   begin
      id 25
      name LeftFoot
      direction 0.000000 -0.258819 0.965926
      length 5.235044
      axis 15.0 0.0 0.0 xyz
      dof rx ry rz
   end
   begin
      id 26
      name LeftToeBase
      direction 0.000000 0.000000 1.000000
      length 2.952750
      axis 0.0 0.0 0.0 xyz
      dof rx ry rz
   end
   begin
      id 27
      name RightUpLeg
      direction 0.000000 -1.000000 0.000000
      length 17.039958
      axis 0.0 0.0 0.0 xyz
      dof rx ry rz
   end
   begin
      id 28
      name RightLeg
      direction 0.000000 -1.000000 0.000000
      length 16.939743
      axis 0.0 0.0 0.0 xyz
      dof rx ry rz
   end
   begin
      id 29
      name RightFoot
      direction 0.000000 -0.258819 0.965926
      length 5.235044
      axis 15.0 0.0 0.0 xyz
      dof rx ry rz
   end
   begin
      id 30
      name RightToeBase
      direction 0.000000 0.000000 1.000000
      length 2.952750
      axis 0.0 0.0 0.0 xyz
      dof rx ry rz
   end
:hierarchy
   begin
      root Spine_dum LeftUpLeg_dum RightUpLeg_dum
      Spine_dum Spine
      LeftUpLeg_dum LeftUpLeg
      RightUpLeg_dum RightUpLeg
      Spine Spine_dum1 Spine_dum2 Spine_dum3
      Spine_dum1 Head
      Spine_dum2 LeftShoulder
      Spine_dum3 RightShoulder
      LeftShoulder LeftArm
      LeftArm LeftForeArm
      LeftForeArm LeftHand
      LeftHand LeftHand_dum1 LeftHand_dum2
      LeftHand_dum1 LeftHandThumb1
      RightShoulder RightArm
      RightArm RightForeArm
      RightForeArm RightHand
      RightHand RightHand_dum1 RightHand_dum2
      RightHand_dum1 RightHandThumb1
      LeftUpLeg LeftLeg
      LeftLeg LeftFoot
      LeftFoot LeftToeBase
      RightUpLeg RightLeg
      RightLeg RightFoot
      RightFoot RightToeBase
   end

# File created by Blade
# Date/Time:  Thu Jan 15 19:03:33 2015
# Frame Rate: 120.000 fps
#------------------------------------------------------
:FULLY-SPECIFIED
:DEGREES
1941
root -1.990849 35.551406 -8.700205 -190.395239 -3.230646 -177.618613
Spine 5.600078 10.565213 -2.038932
Head 4.676178 -10.081708 15.005199
LeftShoulder -7.290449 16.582219 -1.370117
LeftArm 15.274250 -7.280918 -79.180139
LeftForeArm -0.000000 0.440551 14.993871
LeftHand 3.171095 -0.000000 1.939633
LeftHandThumb1 -26.253704 33.147579 0.000000
RightShoulder -21.275388 -8.822309 8.766883
RightArm 3.829309 -0.458921 73.174583
RightForeArm -0.000000 -30.984046 28.459847
RightHand -0.347200 0.000000 4.509788
RightHandThumb1 -24.326973 -32.862282 -0.000000
LeftUpLeg 9.595090 14.603589 -7.380071
LeftLeg 4.751340 -0.000000 -0.000000
LeftFoot -18.107060 20.310341 -8.243826
LeftToeBase 16.788511 -0.000000 -0.000000
RightUpLeg -74.160217 2.673571 6.104493
RightLeg 78.666652 -0.000000 -0.000000
RightFoot 37.530859 -33.400433 -20.876342
RightToeBase 13.952544 -0.000000 -0.000000
1942
root -1.992810 35.549286 -8.704361 -190.379871 -3.220821 -177.657983
Spine 5.601996 10.609394 -2.083850
Head 4.645101 -10.099414 15.033242
LeftShoulder -7.284878 16.567742 -1.389873
LeftArm 15.226769 -7.314122 -79.155746
LeftForeArm -0.000000 0.430910 15.100624
LeftHand 3.122057 -0.000000 2.006116
LeftHandThumb1 -26.253704 33.147579 0.000000
RightShoulder -21.278867 -8.785981 8.767125
RightArm 3.855050 -0.483013 73.160572
RightForeArm -0.000000 -30.908508 28.519618
RightHand -0.345409 -0.000000 4.530927
RightHandThumb1 -24.326973 -32.862282 -0.000000
LeftUpLeg 9.555269 14.637222 -7.410206
LeftLeg 4.825618 -0.000000 -0.000000
LeftFoot -18.143445 20.244436 -8.293818
LeftToeBase 16.820330 -0.000000 -0.000000
RightUpLeg -74.191042 2.597647 6.264285
RightLeg 79.095530 -0.000000 -0.000000
RightFoot 38.422187 -31.981434 -20.643440
RightToeBase 14.108813 -0.000000 -0.000000
1943
root -1.995975 35.546029 -8.711099 -190.353667 -3.173937 -177.705081
Spine 5.580859 10.677109 -2.129805
Head 4.613374 -10.104738 15.073202
LeftShoulder -7.299260 16.572040 -1.413346
LeftArm 15.192387 -7.352970 -79.136289
LeftForeArm -0.000000 0.470205 15.200639
LeftHand 3.102071 -0.000000 1.966083
LeftHandThumb1 -26.253704 33.147579 0.000000
RightShoulder -21.291171 -8.781744 8.756311
RightArm 3.891121 -0.527834 73.163778
RightForeArm -0.000000 -30.907690 28.579951
RightHand -0.370446 -0.000000 4.576765
RightHandThumb1 -24.326973 -32.862282 -0.000000
LeftUpLeg 9.522762 14.713124 -7.444733
LeftLeg 4.870840 -0.000000 -0.000000
LeftFoot -18.172120 20.185961 -8.331405
LeftToeBase 16.750476 -0.000000 -0.000000
RightUpLeg -74.236335 2.589736 6.389905
RightLeg 79.527727 -0.000000 -0.000000
RightFoot 39.078936 -30.475785 -20.188675
RightToeBase 14.270916 -0.000000 -0.000000
1944
root -1.999065 35.543438 -8.719812 -190.339995 -3.117541 -177.744365
Spine 5.561281 10.716885 -2.163124
Head 4.616674 -10.112872 15.073472
LeftShoulder -7.320654 16.549466 -1.435860
LeftArm 15.116385 -7.373508 -79.108540
LeftForeArm -0.000000 0.497551 15.286139
LeftHand 3.086230 0.000000 1.973340
LeftHandThumb1 -26.253704 33.147579 0.000000
RightShoulder -21.244783 -8.782521 8.716102
RightArm 3.882721 -0.518398 73.189453
RightForeArm -0.000000 -30.920696 28.653106
RightHand -0.258158 -0.000000 4.374520
RightHandThumb1 -24.326973 -32.862282 -0.000000
LeftUpLeg 9.513545 14.831121 -7.459924
LeftLeg 4.900176 -0.000000 -0.000000
LeftFoot -18.191663 20.106973 -8.361127
LeftToeBase 16.737753 -0.000000 -0.000000
RightUpLeg -74.264292 2.532520 6.564268
RightLeg 79.932448 -0.000000 -0.000000
RightFoot 39.581996 -29.155102 -19.602858
RightToeBase 14.292997 -0.000000 -0.000000
1945
root -2.002156 35.540479 -8.727437 -190.333723 -3.063654 -177.778059
Spine 5.566553 10.771607 -2.184100
Head 4.585957 -10.141636 15.064134
LeftShoulder -7.328606 16.545170 -1.452623
LeftArm 15.087831 -7.443170 -79.104567
LeftForeArm -0.000000 0.565269 15.343827
LeftHand 3.079728 -0.000000 1.910132
LeftHandThumb1 -26.253704 33.147579 0.000000
RightShoulder -21.238341 -8.756268 8.685927
RightArm 3.890311 -0.526320 73.202786
RightForeArm -0.000000 -30.845662 28.727841
RightHand -0.216391 -0.000000 4.214260
RightHandThumb1 -24.326973 -32.862282 -0.000000
LeftUpLeg 9.515099 14.955546 -7.469464
LeftLeg 4.919948 -0.000000 -0.000000
LeftFoot -18.219438 20.029401 -8.371893
LeftToeBase 16.775410 -0.000000 -0.000000
RightUpLeg -74.286419 2.467720 6.756934
RightLeg 80.305505 -0.000000 -0.000000
RightFoot 39.873661 -28.058571 -18.819649
RightToeBase 14.542492 -0.000000 -0.000000
1946
root -2.005143 35.537927 -8.733588 -190.316736 -3.008064 -177.807238
Spine 5.560714 10.815236 -2.204527
Head 4.556711 -10.148945 15.060233
LeftShoulder -7.342979 16.542682 -1.469400
LeftArm 15.086469 -7.563722 -79.124701
LeftForeArm -0.000000 0.701146 15.351717
LeftHand 3.096996 -0.000000 1.863385
LeftHandThumb1 -26.253704 33.147579 0.000000
RightShoulder -21.221458 -8.732054 8.653845
RightArm 3.895869 -0.594061 73.205003
RightForeArm 0.000000 -30.771085 28.816008
RightHand -0.346842 -0.000000 4.760347
RightHandThumb1 -24.326973 -32.862282 -0.000000
LeftUpLeg 9.507409 15.048692 -7.484872
LeftLeg 4.930778 -0.000000 -0.000000
LeftFoot -18.247777 19.986654 -8.390767
LeftToeBase 16.926389 -0.000000 -0.000000
RightUpLeg -74.310022 2.396487 6.973204
RightLeg 80.628492 -0.000000 -0.000000
RightFoot 40.118823 -27.132701 -17.965830
RightToeBase 14.594945 -0.000000 -0.000000
1947
root -2.008974 35.535389 -8.738681 -190.295766 -2.954491 -177.836338
Spine 5.560638 10.861898 -2.220511
Head 4.505356 -10.157918 15.050920
LeftShoulder -7.365938 16.575439 -1.501133
LeftArm 15.133316 -7.642565 -79.130674
LeftForeArm -0.000000 0.813156 15.360534
LeftHand 3.131186 0.000000 1.849661
LeftHandThumb1 -26.253704 33.147579 0.000000
RightShoulder -21.233069 -8.716418 8.628685
RightArm 3.935433 -0.610366 73.211405
RightForeArm -0.000000 -30.816024 28.876652
RightHand -0.269857 0.000000 4.762559
RightHandThumb1 -24.326973 -32.862282 -0.000000
LeftUpLeg 9.491243 15.151191 -7.501811
LeftLeg 4.941306 -0.000000 -0.000000
LeftFoot -18.248760 19.942031 -8.386812
LeftToeBase 16.793851 -0.000000 -0.000000
RightUpLeg -74.342825 2.330558 7.190410
RightLeg 80.923597 -0.000000 -0.000000
RightFoot 40.236210 -26.395710 -16.912305
RightToeBase 14.768063 -0.000000 -0.000000
1948
root -2.012467 35.533007 -8.743870 -190.280846 -2.893902 -177.859580
Spine 5.563741 10.898713 -2.220300
Head 4.479701 -10.154171 15.011448
LeftShoulder -7.352772 16.571728 -1.530203
LeftArm 15.099951 -7.662640 -79.100185
LeftForeArm -0.000000 0.811687 15.411230
LeftHand 3.109519 -0.000000 1.893472
LeftHandThumb1 -26.253704 33.147579 0.000000
RightShoulder -21.213553 -8.711813 8.579777
RightArm 3.981665 -0.570531 73.246532
RightForeArm -0.000000 -30.834552 28.894099
RightHand -0.040821 -0.000000 4.410104
RightHandThumb1 -24.326973 -32.862282 -0.000000
LeftUpLeg 9.481125 15.246192 -7.514537
LeftLeg 4.951763 -0.000000 -0.000000
LeftFoot -18.274447 19.910937 -8.413590
LeftToeBase 16.780197 -0.000000 -0.000000
RightUpLeg -74.362492 2.273466 7.413838
RightLeg 81.186960 -0.000000 -0.000000
RightFoot 40.190281 -25.797664 -15.621625
RightToeBase 15.033822 -0.000000 -0.000000
1949
root -2.016455 35.531381 -8.749641 -190.266210 -2.789734 -177.877918
Spine 5.565644 10.958496 -2.207564
Head 4.445248 -10.118097 14.974591
LeftShoulder -7.368463 16.566695 -1.580303
LeftArm 15.025293 -7.466130 -78.985156
LeftForeArm -0.000000 0.638587 15.546134
LeftHand 2.976473 -0.000000 1.904619
LeftHandThumb1 -26.253704 33.147579 0.000000
RightShoulder -21.192523 -8.697452 8.556017
RightArm 3.996340 -0.646890 73.230123
RightForeArm -0.000000 -30.731589 28.999021
RightHand -0.037196 -0.000000 4.210452
RightHandThumb1 -24.326973 -32.862282 -0.000000
LeftUpLeg 9.478606 15.370588 -7.514859
LeftLeg 4.952272 -0.000000 -0.000000
LeftFoot -18.304759 19.874385 -8.454933
LeftToeBase 16.774808 -0.000000 -0.000000
RightUpLeg -74.377828 2.257351 7.636750
RightLeg 81.425035 -0.000000 -0.000000
RightFoot 40.024180 -25.116542 -14.185351
RightToeBase 15.307639 -0.000000 -0.000000
1950
root -2.029767 35.528544 -8.751810 -190.422326 -2.480147 -177.909896
Spine 5.801666 11.201446 -2.085938
Head 4.345055 -10.045089 14.880538
LeftShoulder -7.384527 16.476212 -1.625493
LeftArm 15.076149 -7.836449 -79.134008
LeftForeArm -0.000000 1.000649 15.363987
LeftHand 3.119718 -0.000000 1.825100
LeftHandThumb1 -26.253704 33.147579 0.000000
RightShoulder -21.142337 -8.667678 8.462317
RightArm 4.063843 -0.686726 73.234217
RightForeArm -0.000000 -30.775031 29.052410
RightHand -0.120972 -0.000000 4.668515
RightHandThumb1 -24.326973 -32.862282 -0.000000
LeftUpLeg 9.674339 15.704852 -7.469015
LeftLeg 4.889192 -0.000000 -0.000000
LeftFoot -18.321905 19.872909 -8.492390
LeftToeBase 16.791749 -0.000000 -0.000000
RightUpLeg -74.222859 2.380893 7.882111
RightLeg 81.599819 -0.000000 -0.000000
RightFoot 39.822767 -24.384891 -12.587443
RightToeBase 15.702199 -0.000000 -0.000000
1951
root -2.033092 35.526087 -8.752413 -190.430483 -2.445690 -177.930103
Spine 5.865088 11.197869 -2.092751
Head 4.257801 -10.023318 14.864464
LeftShoulder -7.405155 16.438390 -1.625700
LeftArm 15.102097 -7.814849 -79.132518
LeftForeArm 0.000000 0.990812 15.315126
LeftHand 3.145999 -0.000000 1.933492
LeftHandThumb1 -26.253704 33.147579 0.000000
RightShoulder -21.125682 -8.624103 8.450700
RightArm 4.109838 -0.702715 73.217689
RightForeArm -0.000000 -30.744209 29.117420
RightHand -0.020895 -0.000000 4.579089
RightHandThumb1 -24.326973 -32.862282 -0.000000
LeftUpLeg 9.652408 15.761622 -7.479752
LeftLeg 4.954785 -0.000000 -0.000000
LeftFoot -18.367041 19.848340 -8.523170
LeftToeBase 16.810234 -0.000000 -0.000000
RightUpLeg -74.243415 2.303542 8.051029
RightLeg 81.813019 -0.000000 -0.000000
RightFoot 39.290443 -23.686205 -10.746484
RightToeBase 15.695894 -0.000000 -0.000000
1952
root -2.036333 35.524580 -8.755318 -190.400764 -2.457361 -177.946535
Spine 5.873427 11.143556 -2.108019
Head 4.194082 -9.973085 14.843317
LeftShoulder -7.438939 16.440485 -1.655492
LeftArm 15.109358 -7.547218 -79.022504
LeftForeArm 0.000000 0.668034 15.344023
LeftHand 3.131758 -0.000000 2.148360
LeftHandThumb1 -26.253704 33.147579 0.000000
RightShoulder -21.118943 -8.594847 8.441552
RightArm 4.145015 -0.779803 73.198379
RightForeArm -0.000000 -30.763977 29.197128
RightHand -0.029375 0.000000 4.624973
RightHandThumb1 -24.326973 -32.862282 -0.000000
LeftUpLeg 9.593752 15.761294 -7.505537
LeftLeg 5.024182 -0.000000 -0.000000
LeftFoot -18.398741 19.824526 -8.560500
LeftToeBase 16.781060 -0.000000 -0.000000
RightUpLeg -74.300193 2.189805 8.220683
RightLeg 82.033976 -0.000000 -0.000000
RightFoot 38.662755 -23.002505 -9.101910
RightToeBase 16.361993 -0.000000 -0.000000
